<mxfile host="app.diagrams.net" modified="2024-04-21T02:43:08.831Z" agent="Mozilla/5.0 (Windows NT 10.0; Win64; x64) AppleWebKit/537.36 (KHTML, like Gecko) Chrome/123.0.0.0 Safari/537.36" etag="lTbbhLvE-UcYG_xiSfCa" version="24.2.5" type="github">
  <diagram name="Page-1" id="IZm3vokCnuj0Npb6NhkT">
    <mxGraphModel dx="1379" dy="1072" grid="0" gridSize="10" guides="1" tooltips="1" connect="1" arrows="1" fold="1" page="0" pageScale="1" pageWidth="827" pageHeight="1169" math="0" shadow="0">
      <root>
        <mxCell id="0" />
        <mxCell id="1" parent="0" />
        <mxCell id="JtGPr-zatAv9Fw7zj42a-1" value="Actor" style="shape=umlActor;verticalLabelPosition=bottom;verticalAlign=top;html=1;outlineConnect=0;" vertex="1" parent="1">
          <mxGeometry x="-529" y="-153" width="105" height="144" as="geometry" />
        </mxCell>
        <mxCell id="JtGPr-zatAv9Fw7zj42a-4" value="Actor" style="shape=umlActor;verticalLabelPosition=bottom;verticalAlign=top;html=1;outlineConnect=0;" vertex="1" parent="1">
          <mxGeometry x="248" y="-153" width="106" height="174" as="geometry" />
        </mxCell>
        <mxCell id="JtGPr-zatAv9Fw7zj42a-5" value="orders a software" style="ellipse;whiteSpace=wrap;html=1;" vertex="1" parent="1">
          <mxGeometry x="-212" y="-317" width="330" height="114" as="geometry" />
        </mxCell>
        <mxCell id="JtGPr-zatAv9Fw7zj42a-6" value="annalyze requirements" style="ellipse;whiteSpace=wrap;html=1;" vertex="1" parent="1">
          <mxGeometry x="-206" y="-128" width="306" height="107" as="geometry" />
        </mxCell>
        <mxCell id="JtGPr-zatAv9Fw7zj42a-7" value="resources needed" style="ellipse;whiteSpace=wrap;html=1;" vertex="1" parent="1">
          <mxGeometry x="-209" y="56" width="302" height="112" as="geometry" />
        </mxCell>
        <mxCell id="JtGPr-zatAv9Fw7zj42a-8" value="executing plan" style="ellipse;whiteSpace=wrap;html=1;" vertex="1" parent="1">
          <mxGeometry x="-224" y="236" width="341" height="119" as="geometry" />
        </mxCell>
        <mxCell id="JtGPr-zatAv9Fw7zj42a-9" value="eveluate the software" style="ellipse;whiteSpace=wrap;html=1;" vertex="1" parent="1">
          <mxGeometry x="-241" y="428" width="340" height="116" as="geometry" />
        </mxCell>
        <mxCell id="JtGPr-zatAv9Fw7zj42a-10" value="" style="endArrow=none;html=1;rounded=0;fontSize=12;startSize=8;endSize=8;curved=1;entryX=0;entryY=0.5;entryDx=0;entryDy=0;" edge="1" parent="1" source="JtGPr-zatAv9Fw7zj42a-1" target="JtGPr-zatAv9Fw7zj42a-6">
          <mxGeometry width="50" height="50" relative="1" as="geometry">
            <mxPoint x="-178" y="155" as="sourcePoint" />
            <mxPoint x="-128" y="105" as="targetPoint" />
          </mxGeometry>
        </mxCell>
        <mxCell id="JtGPr-zatAv9Fw7zj42a-12" value="" style="endArrow=none;html=1;rounded=0;fontSize=12;startSize=8;endSize=8;curved=1;entryX=0.5;entryY=0.5;entryDx=0;entryDy=0;entryPerimeter=0;" edge="1" parent="1" source="JtGPr-zatAv9Fw7zj42a-6" target="JtGPr-zatAv9Fw7zj42a-4">
          <mxGeometry width="50" height="50" relative="1" as="geometry">
            <mxPoint x="-178" y="155" as="sourcePoint" />
            <mxPoint x="-128" y="105" as="targetPoint" />
            <Array as="points">
              <mxPoint x="305" y="-69" />
            </Array>
          </mxGeometry>
        </mxCell>
        <mxCell id="JtGPr-zatAv9Fw7zj42a-13" value="" style="curved=1;endArrow=classic;html=1;rounded=0;fontSize=12;startSize=8;endSize=8;exitX=0;exitY=0.5;exitDx=0;exitDy=0;" edge="1" parent="1" source="JtGPr-zatAv9Fw7zj42a-9">
          <mxGeometry width="50" height="50" relative="1" as="geometry">
            <mxPoint x="-178" y="155" as="sourcePoint" />
            <mxPoint x="-219" y="-267" as="targetPoint" />
            <Array as="points">
              <mxPoint x="-326" y="334" />
              <mxPoint x="-128" y="155" />
              <mxPoint x="-434" y="12" />
              <mxPoint x="-219" y="-267" />
              <mxPoint x="-486" y="-251" />
              <mxPoint x="-385" y="-60" />
            </Array>
          </mxGeometry>
        </mxCell>
        <mxCell id="JtGPr-zatAv9Fw7zj42a-17" value="customer" style="text;html=1;align=center;verticalAlign=middle;resizable=0;points=[];autosize=1;strokeColor=none;fillColor=none;fontSize=16;" vertex="1" parent="1">
          <mxGeometry x="256.5" y="-28.5" width="84" height="31" as="geometry" />
        </mxCell>
        <mxCell id="JtGPr-zatAv9Fw7zj42a-18" value="developer" style="text;html=1;align=center;verticalAlign=middle;resizable=0;points=[];autosize=1;strokeColor=none;fillColor=none;fontSize=16;" vertex="1" parent="1">
          <mxGeometry x="-518.5" y="-11.5" width="88" height="31" as="geometry" />
        </mxCell>
        <mxCell id="JtGPr-zatAv9Fw7zj42a-19" value="UCD DIAGRAM FOR SOFTWARE DEVELOPMENT" style="text;html=1;align=center;verticalAlign=middle;whiteSpace=wrap;rounded=0;fontSize=16;" vertex="1" parent="1">
          <mxGeometry x="-557" y="673" width="933" height="126" as="geometry" />
        </mxCell>
      </root>
    </mxGraphModel>
  </diagram>
</mxfile>
